nColumns=19
nRows=111
DataType=double
version=3
OpenSimVersion=4.1
endheader
time	ground_force_1_vx	ground_force_1_vy	ground_force_1_vz	ground_force_1_px	ground_force_1_py	ground_force_1_pz	ground_force_1_mx	ground_force_1_my	ground_force_1_mz	ground_force_2_vx	ground_force_2_vy	ground_force_2_vz	ground_force_2_px	ground_force_2_py	ground_force_2_pz	ground_force_2_mx	ground_force_2_my	ground_force_2_mz
0	-77.1405	413.818	15.7757	0.140201	0.006	-0.207729	0	-0.291587	0	0	0	0	0.719397	0	-0.275404	0	0	0
0.01	-79.9721	431.779	13.9167	0.142428	0.006	-0.207062	0	-0.380405	0	0	0	0	0.719397	0	-0.275404	0	0	0
0.02	-82.7684	451.018	11.7693	0.145258	0.006	-0.206193	0	-0.45512	0	0	0	0	0.719397	0	-0.275404	0	0	0
0.03	-85.3601	470.898	9.39121	0.14826	0.006	-0.205249	0	-0.506726	0	0	0	0	0.719397	0	-0.275404	0	0	0
0.04	-87.5809	490.751	6.88131	0.151384	0.006	-0.204254	0	-0.527228	0	0	0	0	0.719397	0	-0.275404	0	0	0
0.05	-89.2891	509.957	4.36571	0.154586	0.006	-0.203233	0	-0.511503	0	0	0	0	0.719397	0	-0.275404	0	0	0
0.06	-90.3667	527.982	1.9709	0.157828	0.006	-0.202208	0	-0.459195	0	0	0	0	0.719397	0	-0.275404	0	0	0
0.07	-90.712	544.387	-0.201365	0.161077	0.006	-0.201202	0	-0.375118	0	0	0	0	0.719397	0	-0.275404	0	0	0
0.08	-90.2429	558.834	-2.09086	0.164306	0.006	-0.200232	0	-0.268099	0	0	0	0	0.719397	0	-0.275404	0	0	0
0.09	-88.9228	571.11	-3.68277	0.167499	0.006	-0.199308	0	-0.149051	0	0	0	0	0.719397	0	-0.275404	0	0	0
0.1	-86.783	581.163	-4.99431	0.170656	0.006	-0.198436	0	-0.028647	0	0	0	0	0.719397	0	-0.275404	0	0	0
0.11	-83.9243	589.113	-6.05821	0.173788	0.006	-0.197619	0	0.083903	0	0	0	0	0.719397	0	-0.275404	0	0	0
0.12	-80.4974	595.243	-6.90714	0.176917	0.006	-0.19686	0	0.181165	0	0	0	0	0.719397	0	-0.275404	0	0	0
0.13	-76.6796	599.96	-7.56107	0.180061	0.006	-0.196164	0	0.25738	0	0	0	0	0.719397	0	-0.275404	0	0	0
0.14	-72.6525	603.745	-8.02243	0.183237	0.006	-0.195543	0	0.307985	0	0	0	0	0.719397	0	-0.275404	0	0	0
0.15	-68.5812	607.086	-8.28178	0.186451	0.006	-0.195008	0	0.328883	0	0	0	0	0.719397	0	-0.275404	0	0	0
0.16	-64.5964	610.416	-8.32935	0.189694	0.006	-0.194572	0	0.316238	0	0	0	0	0.719397	0	-0.275404	0	0	0
0.17	-60.7836	614.053	-8.16706	0.192945	0.006	-0.194244	0	0.267088	0	0	0	0	0.719397	0	-0.275404	0	0	0
0.18	-57.1811	618.176	-7.81719	0.196172	0.006	-0.194027	0	0.18007	0	0	0	0	0.719397	0	-0.275404	0	0	0
0.19	-53.7975	622.841	-7.32034	0.199343	0.006	-0.193914	0	0.056218	0	0	0	0	0.719397	0	-0.275404	0	0	0
0.2	-50.6284	628.013	-6.72487	0.202429	0.006	-0.193895	0	-0.100622	0	0	0	0	0.719397	0	-0.275404	0	0	0
0.21	-47.6616	633.585	-6.07832	0.205412	0.006	-0.193951	0	-0.284073	0	0	0	0	0.719397	0	-0.275404	0	0	0
0.22	-44.8798	639.391	-5.42369	0.20828	0.006	-0.19406	0	-0.486162	0	0	0	0	0.719397	0	-0.275404	0	0	0
0.23	-42.2613	645.209	-4.79978	0.211035	0.006	-0.1942	0	-0.698317	0	0	0	0	0.719397	0	-0.275404	0	0	0
0.24	-39.7831	650.772	-4.24096	0.213683	0.006	-0.194349	0	-0.912055	0	0	0	0	0.719397	0	-0.275404	0	0	0
0.25	-37.421	655.779	-3.77713	0.216242	0.006	-0.194484	0	-1.11955	0	0	0	0	0.719397	0	-0.275404	0	0	0
0.26	-35.152	659.92	-3.43427	0.218733	0.006	-0.194587	0	-1.31405	0	0	0	0	0.719397	0	-0.275404	0	0	0
0.27	-32.9557	662.906	-3.2323	0.221182	0.006	-0.194641	0	-1.49024	0	0	0	0	0.719397	0	-0.275404	0	0	0
0.28	-30.8155	664.494	-3.18127	0.223615	0.006	-0.194634	0	-1.64468	0	0	0	0	0.719397	0	-0.275404	0	0	0
0.29	-28.719	664.522	-3.27982	0.226056	0.006	-0.194557	0	-1.77619	0	0	0	0	0.719397	0	-0.275404	0	0	0
0.3	-26.6591	662.922	-3.51597	0.228523	0.006	-0.194409	0	-1.88587	0	0	0	0	0.719397	0	-0.275404	0	0	0
0.31	-24.6313	659.72	-3.86961	0.231029	0.006	-0.194187	0	-1.97685	0	0	0	0	0.719397	0	-0.275404	0	0	0
0.32	-22.6329	655.027	-4.31618	0.233576	0.006	-0.193895	0	-2.05383	0	0	0	0	0.719397	0	-0.275404	0	0	0
0.33	-20.6638	649.027	-4.82892	0.236164	0.006	-0.193536	0	-2.12238	0	0	0	0	0.719397	0	-0.275404	0	0	0
0.34	-18.7279	641.954	-5.3803	0.238789	0.006	-0.193117	0	-2.18826	0	0	0	0	0.719397	0	-0.275404	0	0	0
0.35	-16.8323	634.078	-5.94313	0.241444	0.006	-0.192642	0	-2.25687	0	0	0	0	0.719397	0	-0.275404	0	0	0
0.36	-14.9847	625.687	-6.49264	0.244125	0.006	-0.192116	0	-2.33296	0	0	0	0	0.719397	0	-0.275404	0	0	0
0.37	-13.1919	617.081	-7.00965	0.246825	0.006	-0.191545	0	-2.42051	0	0	0	0	0.719397	0	-0.275404	0	0	0
0.38	-11.4563	608.551	-7.48302	0.24954	0.006	-0.190932	0	-2.52256	0	0	0	0	0.719397	0	-0.275404	0	0	0
0.39	-9.77231	600.378	-7.91005	0.252265	0.006	-0.19028	0	-2.64113	0	0	0	0	0.719397	0	-0.275404	0	0	0
0.4	-8.12431	592.821	-8.29563	0.254994	0.006	-0.18959	0	-2.77711	0	0	0	0	0.719397	0	-0.275404	0	0	0
0.41	-6.48695	586.109	-8.65072	0.257718	0.006	-0.188864	0	-2.93018	0	0	0	0	0.719397	0	-0.275404	0	0	0
0.42	-4.82854	580.448	-8.99123	0.260428	0.006	-0.1881	0	-3.09878	0	0	0	0	0.719397	0	-0.275404	0	0	0
0.43	-3.11487	576.008	-9.33718	0.263111	0.006	-0.187301	0	-3.28024	0	0	0	0	0.719397	0	-0.275404	0	0	0
0.44	-1.31213	572.921	-9.71096	0.265756	0.006	-0.186466	0	-3.47103	0	0	0	0	0.719397	0	-0.275404	0	0	0
0.45	0.612161	571.274	-10.1346	0.268349	0.006	-0.185598	0	-3.66713	0	0	0	0	0.719397	0	-0.275404	0	0	0
0.46	2.68868	571.117	-10.6259	0.270877	0.006	-0.184704	0	-3.86439	0	0	0	0	0.719397	0	-0.275404	0	0	0
0.47	4.94403	572.466	-11.194	0.273326	0.006	-0.183794	0	-4.05881	0	0	0	0	0.719397	0	-0.275404	0	0	0
0.48	7.39849	575.308	-11.8346	0.275689	0.006	-0.18288	0	-4.24689	0	0	0	0	0.719397	0	-0.275404	0	0	0
0.49	10.0662	579.594	-12.5284	0.277958	0.006	-0.181976	0	-4.42584	0	0	0	0	0.719397	0	-0.275404	0	0	0
0.5	12.9558	585.241	-13.2454	0.280131	0.006	-0.181095	0	-4.59354	0	0	0	0	0.719397	0	-0.275404	0	0	0
0.51	16.0708	592.123	-13.9522	0.282209	0.006	-0.180246	0	-4.74798	0	0	0	0	0.719397	0	-0.275404	0	0	0
0.52	19.4113	600.06	-14.6198	0.284194	0.006	-0.179436	0	-4.88647	0	0	0	0	0.719397	0	-0.275404	0	0	0
0.53	22.9767	608.814	-15.2304	0.286087	0.006	-0.178666	0	-5.0049	0	0	0	0	0.719397	0	-0.275404	0	0	0
0.54	26.7661	618.074	-15.7819	0.287896	0.006	-0.177931	0	-5.09734	0	0	0	0	0.719397	0	-0.275404	0	0	0
0.55	30.7773	627.469	-16.287	0.289626	0.006	-0.177224	0	-5.15609	0	0	0	0	0.719397	0	-0.275404	0	0	0
0.56	35.0026	636.577	-16.7703	0.291287	0.006	-0.176532	0	-5.17223	0	0	0	0	0.719397	0	-0.275404	0	0	0
0.57	39.4287	644.97	-17.2597	0.292887	0.006	-0.175845	0	-5.13669	0	0	0	0	0.719397	0	-0.275404	0	0	0
0.58	44.0378	652.245	-17.7777	0.294437	0.006	-0.175153	0	-5.04143	0	0	0	0	0.719397	0	-0.275404	0	0	0
0.59	48.8093	658.056	-18.3337	0.295944	0.006	-0.174449	0	-4.88061	0	0	0	0	0.719397	0	-0.275404	0	0	0
0.6	53.7192	662.131	-18.9201	0.297415	0.006	-0.173729	0	-4.65163	0	0	0	0	0.719397	0	-0.275404	0	0	0
0.61	58.7391	664.268	-19.5104	0.298858	0.006	-0.172996	0	-4.35559	0	0	0	0	0.719397	0	-0.275404	0	0	0
0.62	63.8319	664.324	-20.0603	0.300285	0.006	-0.172253	0	-3.99759	0	0	0	0	0.719397	0	-0.275404	0	0	0
0.63	68.9458	662.195	-20.5084	0.301705	0.006	-0.171509	0	-3.58635	0	0	0	0	0.719397	0	-0.275404	0	0	0
0.64	74.0126	657.799	-20.7866	0.30313	0.006	-0.170769	0	-3.13293	0	-2.93934	21.586	-4.74239	0.719397	0.006	-0.275404	0	0.215598	0
0.65	78.9518	651.066	-20.8351	0.304567	0.006	-0.170037	0	-2.64899	0	-5.24799	37.233	-5.32925	0.752569	0.006	-0.28723	0	0.34537	0
0.66	83.674	641.928	-20.6149	0.306027	0.006	-0.169313	0	-2.14553	0	-8.26808	56.4927	-5.91952	0.771	0.006	-0.293064	0	0.41651	0
0.67	88.083	630.323	-20.1123	0.307516	0.006	-0.168597	0	-1.63236	0	-12.0761	79.454	-6.47025	0.782622	0.006	-0.29618	0	0.469369	0
0.68	92.0781	616.21	-19.338	0.309044	0.006	-0.167886	0	-1.11806	0	-16.7214	105.964	-6.92299	0.790966	0.006	-0.297974	0	0.518161	0
0.69	95.5577	599.579	-18.3247	0.310619	0.006	-0.167175	0	-0.610066	0	-22.2103	135.543	-7.20178	0.797571	0.006	-0.299031	0	0.569328	0
0.7	98.4241	580.476	-17.1245	0.312252	0.006	-0.166462	0	-0.11488	0	-28.4667	167.391	-7.20797	0.803237	0.006	-0.299642	0	0.626104	0
0.71	100.586	559.006	-15.8022	0.313951	0.006	-0.165743	0	0.361397	0	-35.296	200.565	-6.81706	0.808414	0.006	-0.299966	0	0.68943	0
0.72	101.962	535.337	-14.4275	0.315727	0.006	-0.165019	0	0.812399	0	-42.4636	234.107	-5.9117	0.813367	0.006	-0.300097	0	0.758229	0
0.73	102.479	509.686	-13.063	0.317593	0.006	-0.16429	0	1.23082	0	-49.7319	267.146	-4.41863	0.818242	0.006	-0.300084	0	0.829362	0
0.74	102.081	482.296	-11.7522	0.319559	0.006	-0.16356	0	1.60809	0	-56.8586	298.951	-2.333	0.823114	0.006	-0.299946	0	0.897148	0
0.75	100.731	453.431	-10.5142	0.321637	0.006	-0.162835	0	1.93475	0	-63.6028	328.921	0.262723	0.828012	0.006	-0.299684	0	0.953956	0
0.76	98.4161	423.362	-9.34762	0.323835	0.006	-0.16212	0	2.20135	0	-69.7332	356.602	3.20204	0.832937	0.006	-0.299287	0	0.992242	0
0.77	95.1584	392.378	-8.23985	0.32616	0.006	-0.161421	0	2.39977	0	-75.0566	381.744	6.2629	0.837873	0.006	-0.298738	0	1.00758	0
0.78	91.0105	360.779	-7.17523	0.328616	0.006	-0.160745	0	2.52453	0	-79.4584	404.325	9.2079	0.842803	0.006	-0.298024	0	1.00066	0
0.79	86.0547	328.877	-6.14207	0.331206	0.006	-0.160095	0	2.57372	0	-82.906	424.503	11.827	0.84771	0.006	-0.297136	0	0.977453	0
0.8	80.3969	296.983	-5.13728	0.333933	0.006	-0.159474	0	2.54964	0	-85.4127	442.513	13.9704	0.852571	0.006	-0.296077	0	0.947838	0
0.81	74.1615	265.407	-4.16744	0.336802	0.006	-0.15888	0	2.45881	0	-87.017	458.588	15.568	0.857363	0.006	-0.294865	0	0.923261	0
0.82	67.485	234.457	-3.2479	0.339822	0.006	-0.158309	0	2.31128	0	-87.7783	472.94	16.6342	0.862065	0.006	-0.293525	0	0.91421	0
0.83	60.5105	204.446	-2.40109	0.343008	0.006	-0.157749	0	2.11977	0	-87.7758	485.756	17.2561	0.866658	0.006	-0.292095	0	0.928022	0
0.84	53.3859	175.683	-1.65168	0.34639	0.006	-0.157183	0	1.89839	0	-87.1095	497.224	17.566	0.87113	0.006	-0.290618	0	0.967392	0
0.85	46.2613	148.464	-1.0203	0.350019	0.006	-0.156585	0	1.66109	0	-85.8972	507.566	17.711	0.875471	0.006	-0.289134	0	1.0304	0
0.86	39.2841	123.067	-0.518254	0.353983	0.006	-0.155917	0	1.42051	0	-84.2654	517.061	17.8256	0.87967	0.006	-0.287682	0	1.11193	0
0.87	32.5958	99.7335	-0.144591	0.35843	0.006	-0.155123	0	1.18724	0	-82.3341	526.038	18.0113	0.883709	0.006	-0.286293	0	1.20581	0
0.88	26.3296	78.6637	0.113155	0.363616	0.006	-0.154111	0	0.969564	0	-80.1994	534.84	18.3247	0.887561	0.006	-0.284991	0	1.30703	0
0.89	20.6041	60.0021	0.276009	0.370003	0.006	-0.152727	0	0.773479	0	-77.9206	543.776	18.7772	0.891188	0.006	-0.283792	0	1.41331	0
0.9	15.5158	43.8286	0.369459	0.378483	0.006	-0.15068	0	0.602599	0	-75.5177	553.074	19.3439	0.894553	0.006	-0.282704	0	1.52539	0
0.91	11.1301	30.1498	0.41886	0.390972	0.006	-0.147352	0	0.458359	0	-72.9821	562.839	19.979	0.897621	0.006	-0.28173	0	1.6464	0
0.92	0	0	0	0.411888	0	-0.142701	0	0	0	-70.2923	573.049	20.6327	0.900372	0.006	-0.280864	0	1.78063	0
0.93	0	0	0	0.436681	0	-0.142304	0	0	0	-67.4284	583.572	21.2604	0.902802	0.006	-0.280097	0	1.932	0
0.94	0	0	0	0.461475	0	-0.141908	0	0	0	-64.382	594.2	21.8258	0.904924	0.006	-0.279416	0	2.10294	0
0.95	0	0	0	0.486268	0	-0.141511	0	0	0	-61.1638	604.686	22.2989	0.90677	0.006	-0.278804	0	2.29373	0
0.96	0	0	0	0.511062	0	-0.141114	0	0	0	-57.8037	614.766	22.6558	0.908386	0.006	-0.278243	0	2.50236	0
0.97	0	0	0	0.535855	0	-0.140718	0	0	0	-54.3484	624.18	22.8771	0.909828	0.006	-0.277716	0	2.72503	0
0.98	0	0	0	0.560649	0	-0.140321	0	0	0	-50.8567	632.69	22.946	0.911162	0.006	-0.277208	0	2.95668	0
0.99	0	0	0	0.585442	0	-0.139924	0	0	0	-47.3932	640.091	22.8504	0.912453	0.006	-0.276706	0	3.19143	0
1	0	0	0	0.610236	0	-0.139527	0	0	0	-44.0205	646.22	22.5862	0.913768	0.006	-0.276198	0	3.4231	0
1.01	0	0	0	0.635029	0	-0.139131	0	0	0	-40.7907	650.954	22.1597	0.915168	0.006	-0.27568	0	3.64565	0
1.02	0	0	0	0.659823	0	-0.138734	0	0	0	-37.7369	654.206	21.5911	0.9167	0.006	-0.275148	0	3.85388	0
1.03	0	0	0	0.684616	0	-0.138337	0	0	0	-34.8684	655.92	20.912	0.9184	0.006	-0.274603	0	4.04408	0
1.04	0	0	0	0.70941	0	-0.137941	0	0	0	-32.1701	656.079	20.1623	0.920283	0.006	-0.274046	0	4.21462	0
1.05	0	0	0	0.734204	0	-0.137544	0	0	0	-29.6067	654.707	19.3845	0.922346	0.006	-0.273483	0	4.36606	0
1.06	0	0	0	0.758997	0	-0.137147	0	0	0	-27.1316	651.88	18.6178	0.92457	0.006	-0.272916	0	4.50087	0
1.07	0	0	0	0.783791	0	-0.13675	0	0	0	-24.697	647.726	17.8947	0.926926	0.006	-0.272352	0	4.62275	0
1.08	0	0	0	0.808584	0	-0.136354	0	0	0	-22.2631	642.425	17.241	0.92938	0.006	-0.271793	0	4.73613	0
1.09	0	0	0	0.833378	0	-0.135957	0	0	0	-19.8054	636.203	16.6757	0.931892	0.006	-0.271244	0	4.84568	0
1.1	0	0	0	0.858171	0	-0.13556	0	0	0	-17.3168	629.314	16.2101	0.934425	0.006	-0.270711	0	4.95605	0
